solid Untitled-60a0f393
facet normal -1.0 0.0 0.0
  outer loop
    vertex 81.48568061951222 125.03946725870571 1.9999999999999996
    vertex 81.48568061951222 110.03946725870571 -2.0
    vertex 81.48568061951222 110.03946725870571 1.9999999999999996
  endloop
endfacet
facet normal -1.0 0.0 0.0
  outer loop
    vertex 81.48568061951222 110.03946725870571 -2.0
    vertex 81.48568061951222 125.03946725870571 1.9999999999999996
    vertex 81.48568061951222 125.03946725870571 -2.0
  endloop
endfacet
facet normal -0.0 -1.0 -0.0
  outer loop
    vertex 91.48568061951221 110.03946725870571 1.9999999999999996
    vertex 81.48568061951222 110.03946725870571 -2.0
    vertex 91.48568061951221 110.03946725870571 -2.0
  endloop
endfacet
facet normal -0.0 -1.0 -0.0
  outer loop
    vertex 81.48568061951222 110.03946725870571 -2.0
    vertex 91.48568061951221 110.03946725870571 1.9999999999999996
    vertex 81.48568061951222 110.03946725870571 1.9999999999999996
  endloop
endfacet
facet normal 0.0 1.0 0.0
  outer loop
    vertex 81.48568061951222 125.03946725870571 1.9999999999999996
    vertex 91.48568061951221 125.03946725870571 -2.0
    vertex 81.48568061951222 125.03946725870571 -2.0
  endloop
endfacet
facet normal 0.0 1.0 0.0
  outer loop
    vertex 91.48568061951221 125.03946725870571 -2.0
    vertex 81.48568061951222 125.03946725870571 1.9999999999999996
    vertex 91.48568061951221 125.03946725870571 1.9999999999999996
  endloop
endfacet
facet normal 0.0 0.0 1.0
  outer loop
    vertex 81.48568061951222 110.03946725870571 1.9999999999999996
    vertex 83.67667566987004 115.98614338026866 1.9999999999999996
    vertex 81.48568061951222 125.03946725870571 1.9999999999999996
  endloop
endfacet
facet normal 0.0 0.0 1.0
  outer loop
    vertex 83.67667566987004 115.98614338026866 1.9999999999999996
    vertex 81.48568061951222 110.03946725870571 1.9999999999999996
    vertex 84.04501047287977 115.29501054232175 1.9999999999999996
  endloop
endfacet
facet normal 0.0 0.0 1.0
  outer loop
    vertex 84.04501047287977 115.29501054232175 1.9999999999999996
    vertex 81.48568061951222 110.03946725870571 1.9999999999999996
    vertex 84.57967291298438 114.72275954674538 1.9999999999999996
  endloop
endfacet
facet normal 0.0 0.0 1.0
  outer loop
    vertex 84.57967291298438 114.72275954674538 1.9999999999999996
    vertex 81.48568061951222 110.03946725870571 1.9999999999999996
    vertex 91.48568061951221 110.03946725870571 1.9999999999999996
  endloop
endfacet
facet normal 0.0 0.0 1.0
  outer loop
    vertex 81.48568061951222 125.03946725870571 1.9999999999999996
    vertex 83.67667566987004 115.98614338026866 1.9999999999999996
    vertex 83.49976991207825 116.74905849983105 1.9999999999999996
  endloop
endfacet
facet normal 0.0 0.0 1.0
  outer loop
    vertex 84.57967291298438 114.72275954674538 1.9999999999999996
    vertex 91.48568061951221 110.03946725870571 1.9999999999999996
    vertex 85.24422662846219 114.30838835319858 1.9999999999999996
  endloop
endfacet
facet normal 0.0 0.0 1.0
  outer loop
    vertex 85.24422662846219 114.30838835319858 1.9999999999999996
    vertex 91.48568061951221 110.03946725870571 1.9999999999999996
    vertex 85.99338338183036 114.08013567374083 1.9999999999999996
  endloop
endfacet
facet normal 0.0 0.0 1.0
  outer loop
    vertex 85.99338338183036 114.08013567374083 1.9999999999999996
    vertex 91.48568061951221 110.03946725870571 1.9999999999999996
    vertex 86.77608937838689 114.05355655127174 1.9999999999999996
  endloop
endfacet
facet normal 0.0 0.0 1.0
  outer loop
    vertex 86.77608937838689 114.05355655127174 1.9999999999999996
    vertex 91.48568061951221 110.03946725870571 1.9999999999999996
    vertex 87.53900449794925 114.23046230906353 1.9999999999999996
  endloop
endfacet
facet normal 0.0 0.0 1.0
  outer loop
    vertex 87.53900449794925 114.23046230906353 1.9999999999999996
    vertex 91.48568061951221 110.03946725870571 1.9999999999999996
    vertex 88.23013733589616 114.59879711207324 1.9999999999999996
  endloop
endfacet
facet normal 0.0 0.0 1.0
  outer loop
    vertex 88.23013733589616 114.59879711207324 1.9999999999999996
    vertex 91.48568061951221 110.03946725870571 1.9999999999999996
    vertex 88.80238833147254 115.13345955217787 1.9999999999999996
  endloop
endfacet
facet normal 0.0 0.0 1.0
  outer loop
    vertex 88.80238833147254 115.13345955217787 1.9999999999999996
    vertex 91.48568061951221 110.03946725870571 1.9999999999999996
    vertex 89.21675952501933 115.79801326765569 1.9999999999999996
  endloop
endfacet
facet normal 0.0 0.0 1.0
  outer loop
    vertex 89.21675952501933 115.79801326765569 1.9999999999999996
    vertex 91.48568061951221 110.03946725870571 1.9999999999999996
    vertex 89.4450122044771 116.54717002102385 1.9999999999999996
  endloop
endfacet
facet normal 0.0 0.0 1.0
  outer loop
    vertex 89.4450122044771 116.54717002102385 1.9999999999999996
    vertex 91.48568061951221 110.03946725870571 1.9999999999999996
    vertex 89.4715913269462 117.32987601758036 1.9999999999999996
  endloop
endfacet
facet normal 0.0 0.0 1.0
  outer loop
    vertex 81.48568061951222 125.03946725870571 1.9999999999999996
    vertex 84.74122390312827 119.48013740533817 1.9999999999999996
    vertex 91.48568061951221 125.03946725870571 1.9999999999999996
  endloop
endfacet
facet normal 0.0 0.0 1.0
  outer loop
    vertex 84.74122390312827 119.48013740533817 1.9999999999999996
    vertex 81.48568061951222 125.03946725870571 1.9999999999999996
    vertex 84.1689729075519 118.94547496523354 1.9999999999999996
  endloop
endfacet
facet normal 0.0 0.0 1.0
  outer loop
    vertex 84.1689729075519 118.94547496523354 1.9999999999999996
    vertex 81.48568061951222 125.03946725870571 1.9999999999999996
    vertex 83.7546017140051 118.28092124975572 1.9999999999999996
  endloop
endfacet
facet normal 0.0 0.0 1.0
  outer loop
    vertex 83.7546017140051 118.28092124975572 1.9999999999999996
    vertex 81.48568061951222 125.03946725870571 1.9999999999999996
    vertex 83.52634903454734 117.53176449638757 1.9999999999999996
  endloop
endfacet
facet normal 0.0 0.0 1.0
  outer loop
    vertex 83.52634903454734 117.53176449638757 1.9999999999999996
    vertex 81.48568061951222 125.03946725870571 1.9999999999999996
    vertex 83.49976991207825 116.74905849983105 1.9999999999999996
  endloop
endfacet
facet normal 0.0 0.0 1.0
  outer loop
    vertex 91.48568061951221 125.03946725870571 1.9999999999999996
    vertex 84.74122390312827 119.48013740533817 1.9999999999999996
    vertex 85.43235674107518 119.84847220834789 1.9999999999999996
  endloop
endfacet
facet normal 0.0 0.0 1.0
  outer loop
    vertex 91.48568061951221 125.03946725870571 1.9999999999999996
    vertex 85.43235674107518 119.84847220834789 1.9999999999999996
    vertex 86.19527186063756 120.02537796613967 1.9999999999999996
  endloop
endfacet
facet normal 0.0 0.0 1.0
  outer loop
    vertex 91.48568061951221 125.03946725870571 1.9999999999999996
    vertex 86.19527186063756 120.02537796613967 1.9999999999999996
    vertex 86.97797785719409 119.99879884367058 1.9999999999999996
  endloop
endfacet
facet normal 0.0 0.0 1.0
  outer loop
    vertex 91.48568061951221 125.03946725870571 1.9999999999999996
    vertex 86.97797785719409 119.99879884367058 1.9999999999999996
    vertex 87.72713461056225 119.77054616421283 1.9999999999999996
  endloop
endfacet
facet normal 0.0 0.0 1.0
  outer loop
    vertex 91.48568061951221 125.03946725870571 1.9999999999999996
    vertex 87.72713461056225 119.77054616421283 1.9999999999999996
    vertex 88.39168832604007 119.35617497066602 1.9999999999999996
  endloop
endfacet
facet normal 0.0 0.0 1.0
  outer loop
    vertex 91.48568061951221 125.03946725870571 1.9999999999999996
    vertex 88.39168832604007 119.35617497066602 1.9999999999999996
    vertex 88.92635076614468 118.78392397508966 1.9999999999999996
  endloop
endfacet
facet normal 0.0 0.0 1.0
  outer loop
    vertex 91.48568061951221 125.03946725870571 1.9999999999999996
    vertex 88.92635076614468 118.78392397508966 1.9999999999999996
    vertex 89.29468556915441 118.09279113714275 1.9999999999999996
  endloop
endfacet
facet normal 0.0 0.0 1.0
  outer loop
    vertex 91.48568061951221 125.03946725870571 1.9999999999999996
    vertex 89.29468556915441 118.09279113714275 1.9999999999999996
    vertex 89.4715913269462 117.32987601758036 1.9999999999999996
  endloop
endfacet
facet normal 0.0 0.0 1.0
  outer loop
    vertex 91.48568061951221 125.03946725870571 1.9999999999999996
    vertex 89.4715913269462 117.32987601758036 1.9999999999999996
    vertex 91.48568061951221 110.03946725870571 1.9999999999999996
  endloop
endfacet
facet normal 0.0 0.0 -1.0
  outer loop
    vertex 81.48568061951222 125.03946725870571 -2.0
    vertex 85.19851375780729 117.80966299365151 -2.0
    vertex 81.48568061951222 110.03946725870571 -2.0
  endloop
endfacet
facet normal 0.0 0.0 -1.0
  outer loop
    vertex 85.19851375780729 117.80966299365151 -2.0
    vertex 81.48568061951222 125.03946725870571 -2.0
    vertex 85.4417142297087 118.11656250842162 -2.0
  endloop
endfacet
facet normal 0.0 0.0 -1.0
  outer loop
    vertex 85.4417142297087 118.11656250842162 -2.0
    vertex 81.48568061951222 125.03946725870571 -2.0
    vertex 91.48568061951221 125.03946725870571 -2.0
  endloop
endfacet
facet normal 0.0 0.0 -1.0
  outer loop
    vertex 81.48568061951222 110.03946725870571 -2.0
    vertex 85.19851375780729 117.80966299365151 -2.0
    vertex 85.04303158038728 117.45027591235348 -2.0
  endloop
endfacet
facet normal 0.0 0.0 -1.0
  outer loop
    vertex 81.48568061951222 110.03946725870571 -2.0
    vertex 85.04303158038728 117.45027591235348 -2.0
    vertex 84.98586355089336 117.06289290020275 -2.0
  endloop
endfacet
facet normal 0.0 0.0 -1.0
  outer loop
    vertex 85.4417142297087 118.11656250842162 -2.0
    vertex 91.48568061951221 125.03946725870571 -2.0
    vertex 85.75605928583917 118.35005976190766 -2.0
  endloop
endfacet
facet normal 0.0 0.0 -1.0
  outer loop
    vertex 85.75605928583917 118.35005976190766 -2.0
    vertex 91.48568061951221 125.03946725870571 -2.0
    vertex 86.12012683010319 118.494242302157 -2.0
  endloop
endfacet
facet normal 0.0 0.0 -1.0
  outer loop
    vertex 86.12012683010319 118.494242302157 -2.0
    vertex 91.48568061951221 125.03946725870571 -2.0
    vertex 86.50910626100925 118.53928432732457 -2.0
  endloop
endfacet
facet normal 0.0 0.0 -1.0
  outer loop
    vertex 86.50910626100925 118.53928432732457 -2.0
    vertex 91.48568061951221 125.03946725870571 -2.0
    vertex 86.89648927315999 118.48211629783064 -2.0
  endloop
endfacet
facet normal 0.0 0.0 -1.0
  outer loop
    vertex 86.89648927315999 118.48211629783064 -2.0
    vertex 91.48568061951221 125.03946725870571 -2.0
    vertex 87.25587635445802 118.32663412041063 -2.0
  endloop
endfacet
facet normal 0.0 0.0 -1.0
  outer loop
    vertex 87.25587635445802 118.32663412041063 -2.0
    vertex 91.48568061951221 125.03946725870571 -2.0
    vertex 87.56277586922815 118.08343364850923 -2.0
  endloop
endfacet
facet normal 0.0 0.0 -1.0
  outer loop
    vertex 87.56277586922815 118.08343364850923 -2.0
    vertex 91.48568061951221 125.03946725870571 -2.0
    vertex 87.79627312271418 117.76908859237875 -2.0
  endloop
endfacet
facet normal 0.0 0.0 -1.0
  outer loop
    vertex 87.79627312271418 117.76908859237875 -2.0
    vertex 91.48568061951221 125.03946725870571 -2.0
    vertex 87.94045566296352 117.40502104811472 -2.0
  endloop
endfacet
facet normal 0.0 0.0 -1.0
  outer loop
    vertex 87.94045566296352 117.40502104811472 -2.0
    vertex 91.48568061951221 125.03946725870571 -2.0
    vertex 87.98549768813108 117.01604161720866 -2.0
  endloop
endfacet
facet normal 0.0 0.0 -1.0
  outer loop
    vertex 81.48568061951222 110.03946725870571 -2.0
    vertex 85.4085853697963 115.99550086890218 -2.0
    vertex 91.48568061951221 110.03946725870571 -2.0
  endloop
endfacet
facet normal 0.0 0.0 -1.0
  outer loop
    vertex 85.4085853697963 115.99550086890218 -2.0
    vertex 81.48568061951222 110.03946725870571 -2.0
    vertex 85.17508811631026 116.30984592503266 -2.0
  endloop
endfacet
facet normal 0.0 0.0 -1.0
  outer loop
    vertex 85.17508811631026 116.30984592503266 -2.0
    vertex 81.48568061951222 110.03946725870571 -2.0
    vertex 85.03090557606093 116.67391346929669 -2.0
  endloop
endfacet
facet normal 0.0 0.0 -1.0
  outer loop
    vertex 85.03090557606093 116.67391346929669 -2.0
    vertex 81.48568061951222 110.03946725870571 -2.0
    vertex 84.98586355089336 117.06289290020275 -2.0
  endloop
endfacet
facet normal 0.0 0.0 -1.0
  outer loop
    vertex 91.48568061951221 110.03946725870571 -2.0
    vertex 85.4085853697963 115.99550086890218 -2.0
    vertex 85.71548488456642 115.75230039700078 -2.0
  endloop
endfacet
facet normal 0.0 0.0 -1.0
  outer loop
    vertex 91.48568061951221 110.03946725870571 -2.0
    vertex 85.71548488456642 115.75230039700078 -2.0
    vertex 86.07487196586445 115.59681821958077 -2.0
  endloop
endfacet
facet normal 0.0 0.0 -1.0
  outer loop
    vertex 91.48568061951221 110.03946725870571 -2.0
    vertex 86.07487196586445 115.59681821958077 -2.0
    vertex 86.4622549780152 115.53965019008685 -2.0
  endloop
endfacet
facet normal 0.0 0.0 -1.0
  outer loop
    vertex 91.48568061951221 110.03946725870571 -2.0
    vertex 86.4622549780152 115.53965019008685 -2.0
    vertex 86.85123440892124 115.5846922152544 -2.0
  endloop
endfacet
facet normal 0.0 0.0 -1.0
  outer loop
    vertex 91.48568061951221 110.03946725870571 -2.0
    vertex 86.85123440892124 115.5846922152544 -2.0
    vertex 87.21530195318526 115.72887475550375 -2.0
  endloop
endfacet
facet normal 0.0 0.0 -1.0
  outer loop
    vertex 91.48568061951221 110.03946725870571 -2.0
    vertex 87.21530195318526 115.72887475550375 -2.0
    vertex 87.52964700931575 115.96237200898979 -2.0
  endloop
endfacet
facet normal 0.0 0.0 -1.0
  outer loop
    vertex 91.48568061951221 110.03946725870571 -2.0
    vertex 87.52964700931575 115.96237200898979 -2.0
    vertex 87.77284748121714 116.2692715237599 -2.0
  endloop
endfacet
facet normal 0.0 0.0 -1.0
  outer loop
    vertex 91.48568061951221 110.03946725870571 -2.0
    vertex 87.77284748121714 116.2692715237599 -2.0
    vertex 87.92832965863717 116.62865860505794 -2.0
  endloop
endfacet
facet normal 0.0 0.0 -1.0
  outer loop
    vertex 91.48568061951221 110.03946725870571 -2.0
    vertex 87.92832965863717 116.62865860505794 -2.0
    vertex 87.98549768813108 117.01604161720866 -2.0
  endloop
endfacet
facet normal 0.0 0.0 -1.0
  outer loop
    vertex 91.48568061951221 110.03946725870571 -2.0
    vertex 87.98549768813108 117.01604161720866 -2.0
    vertex 91.48568061951221 125.03946725870571 -2.0
  endloop
endfacet
facet normal 1.0 0.0 0.0
  outer loop
    vertex 91.48568061951221 125.03946725870571 -2.0
    vertex 91.48568061951221 110.03946725870571 1.9999999999999996
    vertex 91.48568061951221 110.03946725870571 -2.0
  endloop
endfacet
facet normal 1.0 0.0 0.0
  outer loop
    vertex 91.48568061951221 110.03946725870571 1.9999999999999996
    vertex 91.48568061951221 125.03946725870571 -2.0
    vertex 91.48568061951221 125.03946725870571 1.9999999999999996
  endloop
endfacet
facet normal 0.9297432647343153 0.36820844868250496 0.0
  outer loop
    vertex 85.03090557606093 116.67391346929669 -2.0
    vertex 85.17508811631026 116.30984592503266 0.5000000000000043
    vertex 85.17508811631026 116.30984592503266 -2.0
  endloop
endfacet
facet normal 0.9297432647343153 0.36820844868250496 0.0
  outer loop
    vertex 85.17508811631026 116.30984592503266 0.5000000000000043
    vertex 85.03090557606093 116.67391346929669 -2.0
    vertex 85.03090557606093 116.67391346929669 0.5000000000000043
  endloop
endfacet
facet normal 0.9933623903118763 0.1150267860712256 0.0
  outer loop
    vertex 84.98586355089336 117.06289290020275 -2.0
    vertex 85.03090557606093 116.67391346929669 0.5000000000000043
    vertex 85.03090557606093 116.67391346929669 -2.0
  endloop
endfacet
facet normal 0.9933623903118763 0.1150267860712256 0.0
  outer loop
    vertex 85.03090557606093 116.67391346929669 0.5000000000000043
    vertex 84.98586355089336 117.06289290020275 -2.0
    vertex 84.98586355089336 117.06289290020275 0.5000000000000043
  endloop
endfacet
facet normal 0.9892855105986502 -0.145993761920049 0.0
  outer loop
    vertex 85.04303158038728 117.45027591235348 -2.0
    vertex 84.98586355089336 117.06289290020275 0.5000000000000043
    vertex 84.98586355089336 117.06289290020275 -2.0
  endloop
endfacet
facet normal 0.9892855105986502 -0.145993761920049 0.0
  outer loop
    vertex 84.98586355089336 117.06289290020275 0.5000000000000043
    vertex 85.04303158038728 117.45027591235348 -2.0
    vertex 85.04303158038728 117.45027591235348 0.5000000000000043
  endloop
endfacet
facet normal 0.9177904582097318 -0.3970650763025763 0.0
  outer loop
    vertex 85.19851375780729 117.80966299365151 -2.0
    vertex 85.04303158038728 117.45027591235348 0.5000000000000043
    vertex 85.04303158038728 117.45027591235348 -2.0
  endloop
endfacet
facet normal 0.9177904582097318 -0.3970650763025763 0.0
  outer loop
    vertex 85.04303158038728 117.45027591235348 0.5000000000000043
    vertex 85.19851375780729 117.80966299365151 -2.0
    vertex 85.19851375780729 117.80966299365151 0.5000000000000043
  endloop
endfacet
facet normal 0.783749502814253 -0.6210770619161612 0.0
  outer loop
    vertex 85.4417142297087 118.11656250842162 -2.0
    vertex 85.19851375780729 117.80966299365151 0.5000000000000043
    vertex 85.19851375780729 117.80966299365151 -2.0
  endloop
endfacet
facet normal 0.783749502814253 -0.6210770619161612 0.0
  outer loop
    vertex 85.19851375780729 117.80966299365151 0.5000000000000043
    vertex 85.4417142297087 118.11656250842162 -2.0
    vertex 85.4417142297087 118.11656250842162 0.5000000000000043
  endloop
endfacet
facet normal 0.5962973140092775 -0.8027636721385198 0.0
  outer loop
    vertex 85.75605928583917 118.35005976190766 0.5000000000000043
    vertex 85.4417142297087 118.11656250842162 -2.0
    vertex 85.75605928583917 118.35005976190766 -2.0
  endloop
endfacet
facet normal 0.5962973140092775 -0.8027636721385198 0.0
  outer loop
    vertex 85.4417142297087 118.11656250842162 -2.0
    vertex 85.75605928583917 118.35005976190766 0.5000000000000043
    vertex 85.4417142297087 118.11656250842162 0.5000000000000043
  endloop
endfacet
facet normal 0.3682084486825397 -0.9297432647343016 0.0
  outer loop
    vertex 86.12012683010319 118.494242302157 0.5000000000000043
    vertex 85.75605928583917 118.35005976190766 -2.0
    vertex 86.12012683010319 118.494242302157 -2.0
  endloop
endfacet
facet normal 0.3682084486825397 -0.9297432647343016 0.0
  outer loop
    vertex 85.75605928583917 118.35005976190766 -2.0
    vertex 86.12012683010319 118.494242302157 0.5000000000000043
    vertex 85.75605928583917 118.35005976190766 0.5000000000000043
  endloop
endfacet
facet normal 0.1150267860712256 -0.9933623903118763 0.0
  outer loop
    vertex 86.50910626100925 118.53928432732457 0.5000000000000043
    vertex 86.12012683010319 118.494242302157 -2.0
    vertex 86.50910626100925 118.53928432732457 -2.0
  endloop
endfacet
facet normal 0.1150267860712256 -0.9933623903118763 0.0
  outer loop
    vertex 86.12012683010319 118.494242302157 -2.0
    vertex 86.50910626100925 118.53928432732457 0.5000000000000043
    vertex 86.12012683010319 118.494242302157 0.5000000000000043
  endloop
endfacet
facet normal -0.14599376192007305 -0.9892855105986468 -0.0
  outer loop
    vertex 86.89648927315999 118.48211629783064 0.5000000000000043
    vertex 86.50910626100925 118.53928432732457 -2.0
    vertex 86.89648927315999 118.48211629783064 -2.0
  endloop
endfacet
facet normal -0.14599376192007305 -0.9892855105986468 -0.0
  outer loop
    vertex 86.50910626100925 118.53928432732457 -2.0
    vertex 86.89648927315999 118.48211629783064 0.5000000000000043
    vertex 86.50910626100925 118.53928432732457 0.5000000000000043
  endloop
endfacet
facet normal -0.3970650763025625 -0.9177904582097376 -0.0
  outer loop
    vertex 87.25587635445802 118.32663412041063 0.5000000000000043
    vertex 86.89648927315999 118.48211629783064 -2.0
    vertex 87.25587635445802 118.32663412041063 -2.0
  endloop
endfacet
facet normal -0.3970650763025625 -0.9177904582097376 -0.0
  outer loop
    vertex 86.89648927315999 118.48211629783064 -2.0
    vertex 87.25587635445802 118.32663412041063 0.5000000000000043
    vertex 86.89648927315999 118.48211629783064 0.5000000000000043
  endloop
endfacet
facet normal -0.6210770619161472 -0.7837495028142641 -0.0
  outer loop
    vertex 87.56277586922815 118.08343364850923 0.5000000000000043
    vertex 87.25587635445802 118.32663412041063 -2.0
    vertex 87.56277586922815 118.08343364850923 -2.0
  endloop
endfacet
facet normal -0.6210770619161472 -0.7837495028142641 -0.0
  outer loop
    vertex 87.25587635445802 118.32663412041063 -2.0
    vertex 87.56277586922815 118.08343364850923 0.5000000000000043
    vertex 87.25587635445802 118.32663412041063 0.5000000000000043
  endloop
endfacet
facet normal -0.8027636721385062 -0.5962973140092962 -0.0
  outer loop
    vertex 87.56277586922815 118.08343364850923 0.5000000000000043
    vertex 87.79627312271418 117.76908859237875 -2.0
    vertex 87.79627312271418 117.76908859237875 0.5000000000000043
  endloop
endfacet
facet normal -0.8027636721385062 -0.5962973140092962 -0.0
  outer loop
    vertex 87.79627312271418 117.76908859237875 -2.0
    vertex 87.56277586922815 118.08343364850923 0.5000000000000043
    vertex 87.56277586922815 118.08343364850923 -2.0
  endloop
endfacet
facet normal -0.9297432647343153 -0.36820844868250496 -0.0
  outer loop
    vertex 87.79627312271418 117.76908859237875 0.5000000000000043
    vertex 87.94045566296352 117.40502104811472 -2.0
    vertex 87.94045566296352 117.40502104811472 0.5000000000000043
  endloop
endfacet
facet normal -0.9297432647343153 -0.36820844868250496 -0.0
  outer loop
    vertex 87.94045566296352 117.40502104811472 -2.0
    vertex 87.79627312271418 117.76908859237875 0.5000000000000043
    vertex 87.79627312271418 117.76908859237875 -2.0
  endloop
endfacet
facet normal -0.9933623903118763 -0.1150267860712256 -0.0
  outer loop
    vertex 87.94045566296352 117.40502104811472 0.5000000000000043
    vertex 87.98549768813108 117.01604161720866 -2.0
    vertex 87.98549768813108 117.01604161720866 0.5000000000000043
  endloop
endfacet
facet normal -0.9933623903118763 -0.1150267860712256 -0.0
  outer loop
    vertex 87.98549768813108 117.01604161720866 -2.0
    vertex 87.94045566296352 117.40502104811472 0.5000000000000043
    vertex 87.94045566296352 117.40502104811472 -2.0
  endloop
endfacet
facet normal -0.9892855105986502 0.145993761920049 0.0
  outer loop
    vertex 87.98549768813108 117.01604161720866 0.5000000000000043
    vertex 87.92832965863717 116.62865860505794 -2.0
    vertex 87.92832965863717 116.62865860505794 0.5000000000000043
  endloop
endfacet
facet normal -0.9892855105986502 0.145993761920049 0.0
  outer loop
    vertex 87.92832965863717 116.62865860505794 -2.0
    vertex 87.98549768813108 117.01604161720866 0.5000000000000043
    vertex 87.98549768813108 117.01604161720866 -2.0
  endloop
endfacet
facet normal -0.9177904582097318 0.3970650763025763 0.0
  outer loop
    vertex 87.92832965863717 116.62865860505794 0.5000000000000043
    vertex 87.77284748121714 116.2692715237599 -2.0
    vertex 87.77284748121714 116.2692715237599 0.5000000000000043
  endloop
endfacet
facet normal -0.9177904582097318 0.3970650763025763 0.0
  outer loop
    vertex 87.77284748121714 116.2692715237599 -2.0
    vertex 87.92832965863717 116.62865860505794 0.5000000000000043
    vertex 87.92832965863717 116.62865860505794 -2.0
  endloop
endfacet
facet normal -0.783749502814253 0.6210770619161612 0.0
  outer loop
    vertex 87.77284748121714 116.2692715237599 0.5000000000000043
    vertex 87.52964700931575 115.96237200898979 -2.0
    vertex 87.52964700931575 115.96237200898979 0.5000000000000043
  endloop
endfacet
facet normal -0.783749502814253 0.6210770619161612 0.0
  outer loop
    vertex 87.52964700931575 115.96237200898979 -2.0
    vertex 87.77284748121714 116.2692715237599 0.5000000000000043
    vertex 87.77284748121714 116.2692715237599 -2.0
  endloop
endfacet
facet normal -0.5962973140092775 0.8027636721385198 0.0
  outer loop
    vertex 87.21530195318526 115.72887475550375 0.5000000000000043
    vertex 87.52964700931575 115.96237200898979 -2.0
    vertex 87.21530195318526 115.72887475550375 -2.0
  endloop
endfacet
facet normal -0.5962973140092775 0.8027636721385198 0.0
  outer loop
    vertex 87.52964700931575 115.96237200898979 -2.0
    vertex 87.21530195318526 115.72887475550375 0.5000000000000043
    vertex 87.52964700931575 115.96237200898979 0.5000000000000043
  endloop
endfacet
facet normal -0.36820844868252983 0.9297432647343056 0.0
  outer loop
    vertex 86.85123440892124 115.5846922152544 0.5000000000000043
    vertex 87.21530195318526 115.72887475550375 -2.0
    vertex 86.85123440892124 115.5846922152544 -2.0
  endloop
endfacet
facet normal -0.36820844868252983 0.9297432647343056 0.0
  outer loop
    vertex 87.21530195318526 115.72887475550375 -2.0
    vertex 86.85123440892124 115.5846922152544 0.5000000000000043
    vertex 87.21530195318526 115.72887475550375 0.5000000000000043
  endloop
endfacet
facet normal -0.1150267860712289 0.9933623903118761 0.0
  outer loop
    vertex 86.4622549780152 115.53965019008685 0.5000000000000043
    vertex 86.85123440892124 115.5846922152544 -2.0
    vertex 86.4622549780152 115.53965019008685 -2.0
  endloop
endfacet
facet normal -0.1150267860712289 0.9933623903118761 0.0
  outer loop
    vertex 86.85123440892124 115.5846922152544 -2.0
    vertex 86.4622549780152 115.53965019008685 0.5000000000000043
    vertex 86.85123440892124 115.5846922152544 0.5000000000000043
  endloop
endfacet
facet normal 0.14599376192007305 0.9892855105986468 0.0
  outer loop
    vertex 86.07487196586445 115.59681821958077 0.5000000000000043
    vertex 86.4622549780152 115.53965019008685 -2.0
    vertex 86.07487196586445 115.59681821958077 -2.0
  endloop
endfacet
facet normal 0.14599376192007305 0.9892855105986468 0.0
  outer loop
    vertex 86.4622549780152 115.53965019008685 -2.0
    vertex 86.07487196586445 115.59681821958077 0.5000000000000043
    vertex 86.4622549780152 115.53965019008685 0.5000000000000043
  endloop
endfacet
facet normal 0.3970650763025625 0.9177904582097376 0.0
  outer loop
    vertex 85.71548488456642 115.75230039700078 0.5000000000000043
    vertex 86.07487196586445 115.59681821958077 -2.0
    vertex 85.71548488456642 115.75230039700078 -2.0
  endloop
endfacet
facet normal 0.3970650763025625 0.9177904582097376 0.0
  outer loop
    vertex 86.07487196586445 115.59681821958077 -2.0
    vertex 85.71548488456642 115.75230039700078 0.5000000000000043
    vertex 86.07487196586445 115.59681821958077 0.5000000000000043
  endloop
endfacet
facet normal 0.6210770619161472 0.7837495028142641 0.0
  outer loop
    vertex 85.4085853697963 115.99550086890218 0.5000000000000043
    vertex 85.71548488456642 115.75230039700078 -2.0
    vertex 85.4085853697963 115.99550086890218 -2.0
  endloop
endfacet
facet normal 0.6210770619161472 0.7837495028142641 0.0
  outer loop
    vertex 85.71548488456642 115.75230039700078 -2.0
    vertex 85.4085853697963 115.99550086890218 0.5000000000000043
    vertex 85.71548488456642 115.75230039700078 0.5000000000000043
  endloop
endfacet
facet normal 0.8027636721385062 0.5962973140092962 0.0
  outer loop
    vertex 85.17508811631026 116.30984592503266 -2.0
    vertex 85.4085853697963 115.99550086890218 0.5000000000000043
    vertex 85.4085853697963 115.99550086890218 -2.0
  endloop
endfacet
facet normal 0.8027636721385062 0.5962973140092962 0.0
  outer loop
    vertex 85.4085853697963 115.99550086890218 0.5000000000000043
    vertex 85.17508811631026 116.30984592503266 -2.0
    vertex 85.17508811631026 116.30984592503266 0.5000000000000043
  endloop
endfacet
facet normal 0.0 0.0 1.0
  outer loop
    vertex 83.67667566987004 115.98614338026866 0.49999999999999944
    vertex 83.52634903454734 117.53176449638757 0.49999999999999944
    vertex 83.49976991207825 116.74905849983105 0.49999999999999944
  endloop
endfacet
facet normal 0.0 0.0 1.0
  outer loop
    vertex 83.52634903454734 117.53176449638757 0.49999999999999944
    vertex 83.67667566987004 115.98614338026866 0.49999999999999944
    vertex 83.7546017140051 118.28092124975572 0.49999999999999944
  endloop
endfacet
facet normal 0.0 0.0 1.0
  outer loop
    vertex 83.7546017140051 118.28092124975572 0.49999999999999944
    vertex 83.67667566987004 115.98614338026866 0.49999999999999944
    vertex 84.04501047287977 115.29501054232175 0.49999999999999944
  endloop
endfacet
facet normal 0.0 0.0 1.0
  outer loop
    vertex 83.7546017140051 118.28092124975572 0.49999999999999944
    vertex 84.04501047287977 115.29501054232175 0.49999999999999944
    vertex 84.1689729075519 118.94547496523354 0.49999999999999944
  endloop
endfacet
facet normal 0.0 0.0 1.0
  outer loop
    vertex 84.1689729075519 118.94547496523354 0.49999999999999944
    vertex 84.04501047287977 115.29501054232175 0.49999999999999944
    vertex 84.57967291298438 114.72275954674538 0.49999999999999944
  endloop
endfacet
facet normal 0.0 0.0 1.0
  outer loop
    vertex 84.1689729075519 118.94547496523354 0.49999999999999944
    vertex 84.57967291298438 114.72275954674538 0.49999999999999944
    vertex 84.74122390312827 119.48013740533817 0.49999999999999944
  endloop
endfacet
facet normal 0.0 0.0 1.0
  outer loop
    vertex 84.74122390312827 119.48013740533817 0.49999999999999944
    vertex 84.57967291298438 114.72275954674538 0.49999999999999944
    vertex 85.24422662846219 114.30838835319858 0.49999999999999944
  endloop
endfacet
facet normal 0.0 0.0 1.0
  outer loop
    vertex 84.74122390312827 119.48013740533817 0.49999999999999944
    vertex 85.24422662846219 114.30838835319858 0.49999999999999944
    vertex 84.98586355089336 117.06289290020275 0.5000000000000043
  endloop
endfacet
facet normal 0.0 0.0 1.0
  outer loop
    vertex 84.98586355089336 117.06289290020275 0.5000000000000043
    vertex 85.24422662846219 114.30838835319858 0.49999999999999944
    vertex 85.03090557606093 116.67391346929669 0.5000000000000043
  endloop
endfacet
facet normal 0.0 0.0 1.0
  outer loop
    vertex 85.03090557606093 116.67391346929669 0.5000000000000043
    vertex 85.24422662846219 114.30838835319858 0.49999999999999944
    vertex 85.17508811631026 116.30984592503266 0.5000000000000043
  endloop
endfacet
facet normal 0.0 0.0 1.0
  outer loop
    vertex 85.17508811631026 116.30984592503266 0.5000000000000043
    vertex 85.24422662846219 114.30838835319858 0.49999999999999944
    vertex 85.4085853697963 115.99550086890218 0.5000000000000043
  endloop
endfacet
facet normal 0.0 0.0 1.0
  outer loop
    vertex 85.4085853697963 115.99550086890218 0.5000000000000043
    vertex 85.24422662846219 114.30838835319858 0.49999999999999944
    vertex 85.99338338183036 114.08013567374083 0.49999999999999944
  endloop
endfacet
facet normal 0.0 0.0 1.0
  outer loop
    vertex 85.4085853697963 115.99550086890218 0.5000000000000043
    vertex 85.99338338183036 114.08013567374083 0.49999999999999944
    vertex 85.71548488456642 115.75230039700078 0.5000000000000043
  endloop
endfacet
facet normal 0.0 0.0 1.0
  outer loop
    vertex 85.71548488456642 115.75230039700078 0.5000000000000043
    vertex 85.99338338183036 114.08013567374083 0.49999999999999944
    vertex 86.07487196586445 115.59681821958077 0.5000000000000043
  endloop
endfacet
facet normal 0.0 0.0 1.0
  outer loop
    vertex 86.07487196586445 115.59681821958077 0.5000000000000043
    vertex 85.99338338183036 114.08013567374083 0.49999999999999944
    vertex 86.77608937838689 114.05355655127174 0.49999999999999944
  endloop
endfacet
facet normal 0.0 0.0 1.0
  outer loop
    vertex 86.07487196586445 115.59681821958077 0.5000000000000043
    vertex 86.77608937838689 114.05355655127174 0.49999999999999944
    vertex 86.4622549780152 115.53965019008685 0.5000000000000043
  endloop
endfacet
facet normal 0.0 0.0 1.0
  outer loop
    vertex 86.4622549780152 115.53965019008685 0.5000000000000043
    vertex 86.77608937838689 114.05355655127174 0.49999999999999944
    vertex 86.85123440892124 115.5846922152544 0.5000000000000043
  endloop
endfacet
facet normal 0.0 0.0 1.0
  outer loop
    vertex 86.85123440892124 115.5846922152544 0.5000000000000043
    vertex 86.77608937838689 114.05355655127174 0.49999999999999944
    vertex 87.53900449794925 114.23046230906353 0.49999999999999944
  endloop
endfacet
facet normal 0.0 0.0 1.0
  outer loop
    vertex 86.85123440892124 115.5846922152544 0.5000000000000043
    vertex 87.53900449794925 114.23046230906353 0.49999999999999944
    vertex 87.21530195318526 115.72887475550375 0.5000000000000043
  endloop
endfacet
facet normal 0.0 0.0 1.0
  outer loop
    vertex 87.21530195318526 115.72887475550375 0.5000000000000043
    vertex 87.53900449794925 114.23046230906353 0.49999999999999944
    vertex 87.52964700931575 115.96237200898979 0.5000000000000043
  endloop
endfacet
facet normal 0.0 0.0 1.0
  outer loop
    vertex 87.52964700931575 115.96237200898979 0.5000000000000043
    vertex 87.53900449794925 114.23046230906353 0.49999999999999944
    vertex 87.77284748121714 116.2692715237599 0.5000000000000043
  endloop
endfacet
facet normal 0.0 0.0 1.0
  outer loop
    vertex 87.77284748121714 116.2692715237599 0.5000000000000043
    vertex 87.53900449794925 114.23046230906353 0.49999999999999944
    vertex 88.23013733589616 114.59879711207324 0.49999999999999944
  endloop
endfacet
facet normal 0.0 0.0 1.0
  outer loop
    vertex 87.77284748121714 116.2692715237599 0.5000000000000043
    vertex 88.23013733589616 114.59879711207324 0.49999999999999944
    vertex 87.92832965863717 116.62865860505794 0.5000000000000043
  endloop
endfacet
facet normal 0.0 0.0 1.0
  outer loop
    vertex 87.92832965863717 116.62865860505794 0.5000000000000043
    vertex 88.23013733589616 114.59879711207324 0.49999999999999944
    vertex 87.98549768813108 117.01604161720866 0.5000000000000043
  endloop
endfacet
facet normal 0.0 0.0 1.0
  outer loop
    vertex 84.74122390312827 119.48013740533817 0.49999999999999944
    vertex 85.04303158038728 117.45027591235348 0.5000000000000043
    vertex 85.43235674107518 119.84847220834789 0.49999999999999944
  endloop
endfacet
facet normal 0.0 0.0 1.0
  outer loop
    vertex 85.04303158038728 117.45027591235348 0.5000000000000043
    vertex 84.74122390312827 119.48013740533817 0.49999999999999944
    vertex 84.98586355089336 117.06289290020275 0.5000000000000043
  endloop
endfacet
facet normal 0.0 0.0 1.0
  outer loop
    vertex 85.43235674107518 119.84847220834789 0.49999999999999944
    vertex 85.04303158038728 117.45027591235348 0.5000000000000043
    vertex 85.19851375780729 117.80966299365151 0.5000000000000043
  endloop
endfacet
facet normal 0.0 0.0 1.0
  outer loop
    vertex 85.43235674107518 119.84847220834789 0.49999999999999944
    vertex 85.19851375780729 117.80966299365151 0.5000000000000043
    vertex 85.4417142297087 118.11656250842162 0.5000000000000043
  endloop
endfacet
facet normal 0.0 0.0 1.0
  outer loop
    vertex 85.43235674107518 119.84847220834789 0.49999999999999944
    vertex 85.4417142297087 118.11656250842162 0.5000000000000043
    vertex 86.19527186063756 120.02537796613967 0.49999999999999944
  endloop
endfacet
facet normal 0.0 0.0 1.0
  outer loop
    vertex 86.19527186063756 120.02537796613967 0.49999999999999944
    vertex 85.4417142297087 118.11656250842162 0.5000000000000043
    vertex 85.75605928583917 118.35005976190766 0.5000000000000043
  endloop
endfacet
facet normal 0.0 0.0 1.0
  outer loop
    vertex 86.19527186063756 120.02537796613967 0.49999999999999944
    vertex 85.75605928583917 118.35005976190766 0.5000000000000043
    vertex 86.12012683010319 118.494242302157 0.5000000000000043
  endloop
endfacet
facet normal 0.0 0.0 1.0
  outer loop
    vertex 86.19527186063756 120.02537796613967 0.49999999999999944
    vertex 86.12012683010319 118.494242302157 0.5000000000000043
    vertex 86.50910626100925 118.53928432732457 0.5000000000000043
  endloop
endfacet
facet normal 0.0 0.0 1.0
  outer loop
    vertex 86.19527186063756 120.02537796613967 0.49999999999999944
    vertex 86.50910626100925 118.53928432732457 0.5000000000000043
    vertex 86.97797785719409 119.99879884367058 0.49999999999999944
  endloop
endfacet
facet normal 0.0 0.0 1.0
  outer loop
    vertex 86.97797785719409 119.99879884367058 0.49999999999999944
    vertex 86.50910626100925 118.53928432732457 0.5000000000000043
    vertex 86.89648927315999 118.48211629783064 0.5000000000000043
  endloop
endfacet
facet normal 0.0 0.0 1.0
  outer loop
    vertex 86.97797785719409 119.99879884367058 0.49999999999999944
    vertex 86.89648927315999 118.48211629783064 0.5000000000000043
    vertex 87.25587635445802 118.32663412041063 0.5000000000000043
  endloop
endfacet
facet normal 0.0 0.0 1.0
  outer loop
    vertex 86.97797785719409 119.99879884367058 0.49999999999999944
    vertex 87.25587635445802 118.32663412041063 0.5000000000000043
    vertex 87.72713461056225 119.77054616421283 0.49999999999999944
  endloop
endfacet
facet normal 0.0 0.0 1.0
  outer loop
    vertex 87.72713461056225 119.77054616421283 0.49999999999999944
    vertex 87.25587635445802 118.32663412041063 0.5000000000000043
    vertex 87.56277586922815 118.08343364850923 0.5000000000000043
  endloop
endfacet
facet normal 0.0 0.0 1.0
  outer loop
    vertex 87.72713461056225 119.77054616421283 0.49999999999999944
    vertex 87.56277586922815 118.08343364850923 0.5000000000000043
    vertex 87.79627312271418 117.76908859237875 0.5000000000000043
  endloop
endfacet
facet normal 0.0 0.0 1.0
  outer loop
    vertex 87.72713461056225 119.77054616421283 0.49999999999999944
    vertex 87.79627312271418 117.76908859237875 0.5000000000000043
    vertex 88.39168832604007 119.35617497066602 0.49999999999999944
  endloop
endfacet
facet normal 0.0 0.0 1.0
  outer loop
    vertex 88.39168832604007 119.35617497066602 0.49999999999999944
    vertex 87.79627312271418 117.76908859237875 0.5000000000000043
    vertex 87.94045566296352 117.40502104811472 0.5000000000000043
  endloop
endfacet
facet normal 0.0 0.0 1.0
  outer loop
    vertex 88.39168832604007 119.35617497066602 0.49999999999999944
    vertex 87.94045566296352 117.40502104811472 0.5000000000000043
    vertex 87.98549768813108 117.01604161720866 0.5000000000000043
  endloop
endfacet
facet normal 0.0 0.0 1.0
  outer loop
    vertex 88.39168832604007 119.35617497066602 0.49999999999999944
    vertex 87.98549768813108 117.01604161720866 0.5000000000000043
    vertex 88.23013733589616 114.59879711207324 0.49999999999999944
  endloop
endfacet
facet normal 0.0 0.0 1.0
  outer loop
    vertex 88.39168832604007 119.35617497066602 0.49999999999999944
    vertex 88.23013733589616 114.59879711207324 0.49999999999999944
    vertex 88.80238833147254 115.13345955217787 0.49999999999999944
  endloop
endfacet
facet normal 0.0 0.0 1.0
  outer loop
    vertex 88.39168832604007 119.35617497066602 0.49999999999999944
    vertex 88.80238833147254 115.13345955217787 0.49999999999999944
    vertex 88.92635076614468 118.78392397508966 0.49999999999999944
  endloop
endfacet
facet normal 0.0 0.0 1.0
  outer loop
    vertex 88.92635076614468 118.78392397508966 0.49999999999999944
    vertex 88.80238833147254 115.13345955217787 0.49999999999999944
    vertex 89.21675952501933 115.79801326765569 0.49999999999999944
  endloop
endfacet
facet normal 0.0 0.0 1.0
  outer loop
    vertex 88.92635076614468 118.78392397508966 0.49999999999999944
    vertex 89.21675952501933 115.79801326765569 0.49999999999999944
    vertex 89.29468556915441 118.09279113714275 0.49999999999999944
  endloop
endfacet
facet normal 0.0 0.0 1.0
  outer loop
    vertex 89.29468556915441 118.09279113714275 0.49999999999999944
    vertex 89.21675952501933 115.79801326765569 0.49999999999999944
    vertex 89.4450122044771 116.54717002102385 0.49999999999999944
  endloop
endfacet
facet normal 0.0 0.0 1.0
  outer loop
    vertex 89.29468556915441 118.09279113714275 0.49999999999999944
    vertex 89.4450122044771 116.54717002102385 0.49999999999999944
    vertex 89.4715913269462 117.32987601758036 0.49999999999999944
  endloop
endfacet
facet normal 0.5291035034156473 0.8485572948677588 0.0
  outer loop
    vertex 84.57967291298438 114.72275954674538 1.9999999999999996
    vertex 85.24422662846219 114.30838835319858 0.49999999999999944
    vertex 84.57967291298438 114.72275954674538 0.49999999999999944
  endloop
endfacet
facet normal 0.5291035034156473 0.8485572948677588 0.0
  outer loop
    vertex 85.24422662846219 114.30838835319858 0.49999999999999944
    vertex 84.57967291298438 114.72275954674538 1.9999999999999996
    vertex 85.24422662846219 114.30838835319858 1.9999999999999996
  endloop
endfacet
facet normal 0.29145194995672347 0.9565854697132001 0.0
  outer loop
    vertex 85.24422662846219 114.30838835319858 1.9999999999999996
    vertex 85.99338338183036 114.08013567374083 0.49999999999999944
    vertex 85.24422662846219 114.30838835319858 0.49999999999999944
  endloop
endfacet
facet normal 0.29145194995672347 0.9565854697132001 0.0
  outer loop
    vertex 85.99338338183036 114.08013567374083 0.49999999999999944
    vertex 85.24422662846219 114.30838835319858 1.9999999999999996
    vertex 85.99338338183036 114.08013567374083 1.9999999999999996
  endloop
endfacet
facet normal 0.03393842775540562 0.9994239256299057 0.0
  outer loop
    vertex 85.99338338183036 114.08013567374083 1.9999999999999996
    vertex 86.77608937838689 114.05355655127174 0.49999999999999944
    vertex 85.99338338183036 114.08013567374083 0.49999999999999944
  endloop
endfacet
facet normal 0.03393842775540562 0.9994239256299057 0.0
  outer loop
    vertex 86.77608937838689 114.05355655127174 0.49999999999999944
    vertex 85.99338338183036 114.08013567374083 1.9999999999999996
    vertex 86.77608937838689 114.05355655127174 1.9999999999999996
  endloop
endfacet
facet normal -0.22588794221156958 0.974153292641062 0.0
  outer loop
    vertex 86.77608937838689 114.05355655127174 1.9999999999999996
    vertex 87.53900449794925 114.23046230906353 0.49999999999999944
    vertex 86.77608937838689 114.05355655127174 0.49999999999999944
  endloop
endfacet
facet normal -0.22588794221156958 0.974153292641062 0.0
  outer loop
    vertex 87.53900449794925 114.23046230906353 0.49999999999999944
    vertex 86.77608937838689 114.05355655127174 1.9999999999999996
    vertex 87.53900449794925 114.23046230906353 1.9999999999999996
  endloop
endfacet
facet normal -0.47032042221425535 0.8824957226231777 0.0
  outer loop
    vertex 87.53900449794925 114.23046230906353 1.9999999999999996
    vertex 88.23013733589616 114.59879711207324 0.49999999999999944
    vertex 87.53900449794925 114.23046230906353 0.49999999999999944
  endloop
endfacet
facet normal -0.47032042221425535 0.8824957226231777 0.0
  outer loop
    vertex 88.23013733589616 114.59879711207324 0.49999999999999944
    vertex 87.53900449794925 114.23046230906353 1.9999999999999996
    vertex 88.23013733589616 114.59879711207324 1.9999999999999996
  endloop
endfacet
facet normal -0.6827013426843384 0.7306975275016343 0.0
  outer loop
    vertex 88.23013733589616 114.59879711207324 1.9999999999999996
    vertex 88.80238833147254 115.13345955217787 0.49999999999999944
    vertex 88.23013733589616 114.59879711207324 0.49999999999999944
  endloop
endfacet
facet normal -0.6827013426843384 0.7306975275016343 0.0
  outer loop
    vertex 88.80238833147254 115.13345955217787 0.49999999999999944
    vertex 88.23013733589616 114.59879711207324 1.9999999999999996
    vertex 88.80238833147254 115.13345955217787 1.9999999999999996
  endloop
endfacet
facet normal -0.848557294867765 0.5291035034156368 0.0
  outer loop
    vertex 89.21675952501933 115.79801326765569 1.9999999999999996
    vertex 88.80238833147254 115.13345955217787 0.49999999999999944
    vertex 88.80238833147254 115.13345955217787 1.9999999999999996
  endloop
endfacet
facet normal -0.848557294867765 0.5291035034156368 0.0
  outer loop
    vertex 88.80238833147254 115.13345955217787 0.49999999999999944
    vertex 89.21675952501933 115.79801326765569 1.9999999999999996
    vertex 89.21675952501933 115.79801326765569 0.49999999999999944
  endloop
endfacet
facet normal -0.9565854697131961 0.2914519499567367 0.0
  outer loop
    vertex 89.4450122044771 116.54717002102385 1.9999999999999996
    vertex 89.21675952501933 115.79801326765569 0.49999999999999944
    vertex 89.21675952501933 115.79801326765569 1.9999999999999996
  endloop
endfacet
facet normal -0.9565854697131961 0.2914519499567367 0.0
  outer loop
    vertex 89.21675952501933 115.79801326765569 0.49999999999999944
    vertex 89.4450122044771 116.54717002102385 1.9999999999999996
    vertex 89.4450122044771 116.54717002102385 0.49999999999999944
  endloop
endfacet
facet normal -0.9994239256299057 0.033938427755406106 0.0
  outer loop
    vertex 89.4715913269462 117.32987601758036 1.9999999999999996
    vertex 89.4450122044771 116.54717002102385 0.49999999999999944
    vertex 89.4450122044771 116.54717002102385 1.9999999999999996
  endloop
endfacet
facet normal -0.9994239256299057 0.033938427755406106 0.0
  outer loop
    vertex 89.4450122044771 116.54717002102385 0.49999999999999944
    vertex 89.4715913269462 117.32987601758036 1.9999999999999996
    vertex 89.4715913269462 117.32987601758036 0.49999999999999944
  endloop
endfacet
facet normal -0.974153292641066 -0.22588794221155276 -0.0
  outer loop
    vertex 89.29468556915441 118.09279113714275 1.9999999999999996
    vertex 89.4715913269462 117.32987601758036 0.49999999999999944
    vertex 89.4715913269462 117.32987601758036 1.9999999999999996
  endloop
endfacet
facet normal -0.974153292641066 -0.22588794221155276 -0.0
  outer loop
    vertex 89.4715913269462 117.32987601758036 0.49999999999999944
    vertex 89.29468556915441 118.09279113714275 1.9999999999999996
    vertex 89.29468556915441 118.09279113714275 0.49999999999999944
  endloop
endfacet
facet normal -0.8824957226231717 -0.47032042221426656 -0.0
  outer loop
    vertex 88.92635076614468 118.78392397508966 1.9999999999999996
    vertex 89.29468556915441 118.09279113714275 0.49999999999999944
    vertex 89.29468556915441 118.09279113714275 1.9999999999999996
  endloop
endfacet
facet normal -0.8824957226231717 -0.47032042221426656 -0.0
  outer loop
    vertex 89.29468556915441 118.09279113714275 0.49999999999999944
    vertex 88.92635076614468 118.78392397508966 1.9999999999999996
    vertex 88.92635076614468 118.78392397508966 0.49999999999999944
  endloop
endfacet
facet normal -0.7306975275016349 -0.6827013426843379 -0.0
  outer loop
    vertex 88.39168832604007 119.35617497066602 1.9999999999999996
    vertex 88.92635076614468 118.78392397508966 0.49999999999999944
    vertex 88.92635076614468 118.78392397508966 1.9999999999999996
  endloop
endfacet
facet normal -0.7306975275016349 -0.6827013426843379 -0.0
  outer loop
    vertex 88.92635076614468 118.78392397508966 0.49999999999999944
    vertex 88.39168832604007 119.35617497066602 1.9999999999999996
    vertex 88.39168832604007 119.35617497066602 0.49999999999999944
  endloop
endfacet
facet normal -0.5291035034156473 -0.8485572948677588 -0.0
  outer loop
    vertex 88.39168832604007 119.35617497066602 1.9999999999999996
    vertex 87.72713461056225 119.77054616421283 0.49999999999999944
    vertex 88.39168832604007 119.35617497066602 0.49999999999999944
  endloop
endfacet
facet normal -0.5291035034156473 -0.8485572948677588 -0.0
  outer loop
    vertex 87.72713461056225 119.77054616421283 0.49999999999999944
    vertex 88.39168832604007 119.35617497066602 1.9999999999999996
    vertex 87.72713461056225 119.77054616421283 1.9999999999999996
  endloop
endfacet
facet normal -0.29145194995672347 -0.9565854697132001 -0.0
  outer loop
    vertex 87.72713461056225 119.77054616421283 1.9999999999999996
    vertex 86.97797785719409 119.99879884367058 0.49999999999999944
    vertex 87.72713461056225 119.77054616421283 0.49999999999999944
  endloop
endfacet
facet normal -0.29145194995672347 -0.9565854697132001 -0.0
  outer loop
    vertex 86.97797785719409 119.99879884367058 0.49999999999999944
    vertex 87.72713461056225 119.77054616421283 1.9999999999999996
    vertex 86.97797785719409 119.99879884367058 1.9999999999999996
  endloop
endfacet
facet normal -0.03393842775540562 -0.9994239256299057 -0.0
  outer loop
    vertex 86.97797785719409 119.99879884367058 1.9999999999999996
    vertex 86.19527186063756 120.02537796613967 0.49999999999999944
    vertex 86.97797785719409 119.99879884367058 0.49999999999999944
  endloop
endfacet
facet normal -0.03393842775540562 -0.9994239256299057 -0.0
  outer loop
    vertex 86.19527186063756 120.02537796613967 0.49999999999999944
    vertex 86.97797785719409 119.99879884367058 1.9999999999999996
    vertex 86.19527186063756 120.02537796613967 1.9999999999999996
  endloop
endfacet
facet normal 0.22588794221156958 -0.974153292641062 0.0
  outer loop
    vertex 86.19527186063756 120.02537796613967 1.9999999999999996
    vertex 85.43235674107518 119.84847220834789 0.49999999999999944
    vertex 86.19527186063756 120.02537796613967 0.49999999999999944
  endloop
endfacet
facet normal 0.22588794221156958 -0.974153292641062 0.0
  outer loop
    vertex 85.43235674107518 119.84847220834789 0.49999999999999944
    vertex 86.19527186063756 120.02537796613967 1.9999999999999996
    vertex 85.43235674107518 119.84847220834789 1.9999999999999996
  endloop
endfacet
facet normal 0.47032042221425535 -0.8824957226231777 0.0
  outer loop
    vertex 85.43235674107518 119.84847220834789 1.9999999999999996
    vertex 84.74122390312827 119.48013740533817 0.49999999999999944
    vertex 85.43235674107518 119.84847220834789 0.49999999999999944
  endloop
endfacet
facet normal 0.47032042221425535 -0.8824957226231777 0.0
  outer loop
    vertex 84.74122390312827 119.48013740533817 0.49999999999999944
    vertex 85.43235674107518 119.84847220834789 1.9999999999999996
    vertex 84.74122390312827 119.48013740533817 1.9999999999999996
  endloop
endfacet
facet normal 0.6827013426843384 -0.7306975275016343 0.0
  outer loop
    vertex 84.74122390312827 119.48013740533817 1.9999999999999996
    vertex 84.1689729075519 118.94547496523354 0.49999999999999944
    vertex 84.74122390312827 119.48013740533817 0.49999999999999944
  endloop
endfacet
facet normal 0.6827013426843384 -0.7306975275016343 0.0
  outer loop
    vertex 84.1689729075519 118.94547496523354 0.49999999999999944
    vertex 84.74122390312827 119.48013740533817 1.9999999999999996
    vertex 84.1689729075519 118.94547496523354 1.9999999999999996
  endloop
endfacet
facet normal 0.848557294867765 -0.5291035034156368 0.0
  outer loop
    vertex 84.1689729075519 118.94547496523354 0.49999999999999944
    vertex 83.7546017140051 118.28092124975572 1.9999999999999996
    vertex 83.7546017140051 118.28092124975572 0.49999999999999944
  endloop
endfacet
facet normal 0.848557294867765 -0.5291035034156368 0.0
  outer loop
    vertex 83.7546017140051 118.28092124975572 1.9999999999999996
    vertex 84.1689729075519 118.94547496523354 0.49999999999999944
    vertex 84.1689729075519 118.94547496523354 1.9999999999999996
  endloop
endfacet
facet normal 0.9565854697131961 -0.2914519499567367 0.0
  outer loop
    vertex 83.7546017140051 118.28092124975572 0.49999999999999944
    vertex 83.52634903454734 117.53176449638757 1.9999999999999996
    vertex 83.52634903454734 117.53176449638757 0.49999999999999944
  endloop
endfacet
facet normal 0.9565854697131961 -0.2914519499567367 0.0
  outer loop
    vertex 83.52634903454734 117.53176449638757 1.9999999999999996
    vertex 83.7546017140051 118.28092124975572 0.49999999999999944
    vertex 83.7546017140051 118.28092124975572 1.9999999999999996
  endloop
endfacet
facet normal 0.9994239256299057 -0.033938427755406106 0.0
  outer loop
    vertex 83.52634903454734 117.53176449638757 0.49999999999999944
    vertex 83.49976991207825 116.74905849983105 1.9999999999999996
    vertex 83.49976991207825 116.74905849983105 0.49999999999999944
  endloop
endfacet
facet normal 0.9994239256299057 -0.033938427755406106 0.0
  outer loop
    vertex 83.49976991207825 116.74905849983105 1.9999999999999996
    vertex 83.52634903454734 117.53176449638757 0.49999999999999944
    vertex 83.52634903454734 117.53176449638757 1.9999999999999996
  endloop
endfacet
facet normal 0.974153292641066 0.22588794221155276 0.0
  outer loop
    vertex 83.49976991207825 116.74905849983105 0.49999999999999944
    vertex 83.67667566987004 115.98614338026866 1.9999999999999996
    vertex 83.67667566987004 115.98614338026866 0.49999999999999944
  endloop
endfacet
facet normal 0.974153292641066 0.22588794221155276 0.0
  outer loop
    vertex 83.67667566987004 115.98614338026866 1.9999999999999996
    vertex 83.49976991207825 116.74905849983105 0.49999999999999944
    vertex 83.49976991207825 116.74905849983105 1.9999999999999996
  endloop
endfacet
facet normal 0.8824957226231717 0.47032042221426656 0.0
  outer loop
    vertex 83.67667566987004 115.98614338026866 0.49999999999999944
    vertex 84.04501047287977 115.29501054232175 1.9999999999999996
    vertex 84.04501047287977 115.29501054232175 0.49999999999999944
  endloop
endfacet
facet normal 0.8824957226231717 0.47032042221426656 0.0
  outer loop
    vertex 84.04501047287977 115.29501054232175 1.9999999999999996
    vertex 83.67667566987004 115.98614338026866 0.49999999999999944
    vertex 83.67667566987004 115.98614338026866 1.9999999999999996
  endloop
endfacet
facet normal 0.7306975275016349 0.6827013426843379 0.0
  outer loop
    vertex 84.04501047287977 115.29501054232175 0.49999999999999944
    vertex 84.57967291298438 114.72275954674538 1.9999999999999996
    vertex 84.57967291298438 114.72275954674538 0.49999999999999944
  endloop
endfacet
facet normal 0.7306975275016349 0.6827013426843379 0.0
  outer loop
    vertex 84.57967291298438 114.72275954674538 1.9999999999999996
    vertex 84.04501047287977 115.29501054232175 0.49999999999999944
    vertex 84.04501047287977 115.29501054232175 1.9999999999999996
  endloop
endfacet
endsolid Untitled-60a0f393
